<?xml version="1.0" encoding="UTF-8"?>
<svg xmlns="http://www.w3.org/2000/svg" xmlns:xlink="http://www.w3.org/1999/xlink" width="375pt" height="374.999991pt" viewBox="0 0 375 374.999991" version="1.2">
<g id="surface1">
<path style=" stroke:none;fill-rule:nonzero;fill:rgb(0%,0%,0%);fill-opacity:1;" d="M 87.152344 220.183594 L 120.625 195.867188 L 113.503906 173.703125 L 25.519531 237.597656 C 20.542969 221.878906 18.058594 205.027344 18.058594 187.613281 C 18.058594 140.792969 37.054688 98.5 67.589844 67.738281 C 73.242188 62.085938 79.351562 56.882812 85.683594 52.019531 L 136.6875 209.101562 L 160.09375 209.101562 L 125.378906 102.34375 L 159.078125 126.660156 L 177.964844 112.972656 L 89.980469 48.855469 C 117.574219 29.402344 151.273438 17.980469 187.460938 17.980469 C 223.875 17.980469 257.578125 29.289062 284.945312 48.742188 L 151.5 145.769531 L 158.625 168.164062 C 189.046875 146.222656 219.238281 124.171875 249.433594 102.230469 L 236.65625 141.585938 L 255.65625 155.269531 L 289.242188 51.90625 C 295.800781 56.65625 301.90625 61.972656 307.5625 67.628906 C 338.097656 98.386719 357.09375 140.683594 357.09375 187.5 C 357.09375 204.914062 354.492188 221.765625 349.628906 237.484375 L 216.074219 140.453125 L 197.1875 154.140625 L 244.796875 188.855469 L 287.996094 220.183594 L 246.609375 220.183594 L 239.257812 242.574219 L 347.933594 242.574219 C 339.566406 267.339844 325.429688 289.394531 307.449219 307.597656 C 277.253906 337.792969 235.863281 356.679688 190.175781 357.355469 L 241.066406 200.277344 L 222.179688 186.59375 C 210.644531 222.105469 199.109375 257.839844 187.460938 293.351562 L 174.683594 253.996094 L 151.5 253.996094 L 184.972656 357.472656 C 139.171875 356.792969 97.898438 337.90625 67.703125 307.710938 C 49.722656 289.617188 35.699219 267.453125 27.214844 242.6875 L 192.324219 242.6875 L 199.449219 220.292969 C 162.015625 220.183594 124.472656 220.183594 87.152344 220.183594 Z M 187.460938 375 C 239.257812 375 286.074219 354.078125 319.886719 320.039062 C 353.929688 286.226562 374.734375 239.292969 374.734375 187.5 C 374.734375 135.707031 353.929688 88.773438 319.886719 54.960938 C 286.074219 21.148438 239.144531 0 187.460938 0 C 135.894531 0 88.960938 21.035156 55.035156 54.960938 C 21.222656 88.773438 0.300781 135.707031 0.300781 187.5 C 0.300781 239.292969 21.109375 286.226562 55.035156 320.039062 C 89.074219 354.191406 135.894531 375 187.460938 375 "/>
</g>
</svg>
